<?xml version="1.0" encoding="UTF-8"?>
<svg width="59px" height="43px" viewBox="0 0 59 43" version="1.1" xmlns="http://www.w3.org/2000/svg" xmlns:xlink="http://www.w3.org/1999/xlink">
    <!-- Generator: Sketch 42 (36781) - http://www.bohemiancoding.com/sketch -->
    <title>cr-seguro-viajero-gastos-medicos</title>
    <desc>Created with Sketch.</desc>
    <defs></defs>
    <g id="Page-1" stroke="none" stroke-width="1" fill="none" fill-rule="evenodd">
        <g id="home-seguroviajero-junio2017-copy" transform="translate(-120.000000, -927.000000)" fill="#444756">
            <g id="Group-8" transform="translate(120.000000, 927.000000)">
                <g id="cr-seguro-viajero-gastos-medicos">
                    <path d="M45.1393556,36.3917333 C45.1393556,34.9610157 46.2973565,33.7998754 47.7242059,33.7998754 C49.1525572,33.7998754 50.3090562,34.9610157 50.3090562,36.3917333 C50.3090562,37.8239569 49.1525572,38.9835912 47.7242059,38.9835912 C46.2973565,38.9835912 45.1393556,37.8239569 45.1393556,36.3917333 M41.692388,36.3917333 C41.692388,39.7320824 44.3928881,42.4399038 47.7242059,42.4399038 C51.0555237,42.4399038 53.7560238,39.7320824 53.7560238,36.3917333 C53.7560238,33.0513842 51.0555237,30.3435628 47.7242059,30.3435628 C44.3928881,30.3435628 41.692388,33.0513842 41.692388,36.3917333" id="Fill-63"></path>
                    <path d="M10.6701297,36.3917333 C10.6701297,34.9610157 11.8281306,33.7998754 13.2564819,33.7998754 C14.6833312,33.7998754 15.8413321,34.9610157 15.8413321,36.3917333 C15.8413321,37.8239569 14.6833312,38.9835912 13.2564819,38.9835912 C11.8281306,38.9835912 10.6701297,37.8239569 10.6701297,36.3917333 M7.22316202,36.3917333 C7.22316202,39.7320824 9.92366217,42.4399038 13.2564819,42.4399038 C16.5862977,42.4399038 19.2882998,39.7320824 19.2882998,36.3917333 C19.2882998,33.0513842 16.5862977,30.3435628 13.2564819,30.3435628 C9.92366217,30.3435628 7.22316202,33.0513842 7.22316202,36.3917333" id="Fill-65"></path>
                    <path d="M13.9996451,13.4095891 C13.9996451,12.8373021 14.454735,12.3719423 15.0344864,12.3719423 L18.0984576,12.3719423 L18.0984576,9.29815849 C18.0984576,8.72587144 18.5535475,8.26201773 19.1332989,8.26201773 L21.1654328,8.26201773 C21.7361725,8.26201773 22.1987721,8.71683533 22.1987721,9.29815849 L22.1987721,12.3719423 L25.2642453,12.3719423 C25.836487,12.3719423 26.2990866,12.828266 26.2990866,13.4095891 L26.2990866,15.4457262 C26.2990866,16.0180132 25.8439967,16.483373 25.2642453,16.483373 L22.1987721,16.483373 L22.1987721,19.5571568 C22.1987721,20.1294439 21.7451842,20.5948036 21.1654328,20.5948036 L19.1332989,20.5948036 C18.5625591,20.5948036 18.0984576,20.13848 18.0984576,19.5571568 L18.0984576,16.483373 L15.0344864,16.483373 C14.4637466,16.483373 13.9996451,16.0270493 13.9996451,15.4457262 L13.9996451,13.4095891 Z M39.9698053,22.5676879 L39.9698053,10.4698409 L50.9985999,10.4698409 L55.4804088,18.7393887 L55.4804088,22.5676879 L39.9698053,22.5676879 Z M47.7243561,7.01352836 L45.1395058,7.01352836 L45.1395058,4.86142786 C45.1395058,4.141551 45.7207592,3.5572158 46.4326819,3.5572158 C47.1491105,3.5572158 47.7243561,4.13552692 47.7243561,4.86142786 L47.7243561,7.01352836 Z M0.328926325,1.82981253 L0.328926325,24.2950912 L0.328926325,34.6640288 C0.328926325,35.6188446 1.10092692,36.3914321 2.05316113,36.3914321 L5.50012878,36.3914321 C5.50012878,32.0977732 8.97262953,28.6158584 13.2561815,28.6158584 C17.5382315,28.6158584 21.0107323,32.0977732 21.0107323,36.3914321 L39.9698053,36.3914321 C39.9698053,32.0977732 43.4423061,28.6158584 47.7243561,28.6158584 C52.0079081,28.6158584 55.4804088,32.0977732 55.4804088,36.3914321 L57.2031417,36.3914321 C58.1553759,36.3914321 58.9273765,35.6188446 58.9273765,34.6640288 L58.9273765,24.2950912 L58.9273765,18.2469207 C58.9273765,17.9577651 58.855283,17.6731276 58.715602,17.4201165 L53.5459015,7.91412745 C53.2440102,7.35840661 52.6642588,7.01352836 52.0334412,7.01352836 L51.1713237,7.01352836 L51.1713237,4.86142786 C51.1713237,2.22740143 49.052077,0.102409261 46.4326819,0.102409261 C43.8162908,0.102409261 41.6925382,2.23493152 41.6925382,4.86142786 L41.6925382,7.01352836 L39.9698053,7.01352836 L39.9698053,1.82981253 C39.9698053,0.874996774 39.1978047,0.102409261 38.2455705,0.102409261 L2.05316113,0.102409261 C1.10092692,0.102409261 0.328926325,0.874996774 0.328926325,1.82981253 L0.328926325,1.82981253 Z" id="Fill-67"></path>
                </g>
            </g>
        </g>
    </g>
</svg>