<?xml version="1.0" encoding="UTF-8"?>
<svg width="62px" height="41px" viewBox="0 0 62 41" version="1.1" xmlns="http://www.w3.org/2000/svg" xmlns:xlink="http://www.w3.org/1999/xlink">
    <!-- Generator: Sketch 42 (36781) - http://www.bohemiancoding.com/sketch -->
    <title>cr-seguro-viajero-inconvenientes-personales</title>
    <desc>Created with Sketch.</desc>
    <defs></defs>
    <g id="Page-1" stroke="none" stroke-width="1" fill="none" fill-rule="evenodd">
        <g id="home-seguroviajero-junio2017-copy" transform="translate(-116.000000, -1403.000000)" fill="#444756">
            <g id="Group-7" transform="translate(116.000000, 1403.000000)">
                <g id="cr-seguro-viajero-inconvenientes-personales">
                    <g id="Group-80">
                        <path d="M11.6503682,10.4260552 C14.4164321,10.4260552 16.667952,8.16192173 16.667952,5.37686493 C16.667952,2.59023908 14.4164321,0.326105583 11.6503682,0.326105583 C8.88430425,0.326105583 6.63278433,2.59180813 6.63278433,5.37686493 C6.63278433,8.16035268 8.88274502,10.4260552 11.6503682,10.4260552" id="Fill-74"></path>
                        <path d="M58.0357324,20.348232 L29.4629468,20.348232 L18.8602214,20.348232 C16.3701402,20.348232 14.0328629,19.3707162 12.2631433,17.5992632 L6.95086609,12.2550922 C6.45503276,11.7545665 5.85940907,11.429774 5.23260089,11.2665932 C4.60423349,11.0939981 3.94780005,11.0939981 3.31943265,11.2665932 C2.69262448,11.429774 2.09544156,11.7545665 1.59960823,12.2550922 C0.862095126,12.997251 0.487881289,13.9747668 0.487881289,14.9522825 L0.487881289,26.9319493 C0.487881289,29.1160615 2.24668632,30.8859455 4.41556735,30.8859455 C4.41556735,30.8859455 12.7496213,30.9989168 13.3156198,31.0177453 L13.3156198,37.8399577 C13.3156198,39.3462419 14.5396108,40.5889264 16.0473808,40.5889264 C17.5551507,40.5889264 18.7900563,39.3462419 18.7900563,37.8399577 L18.7900563,31.0287286 L45.1362697,31.0287286 L45.1362697,37.8399577 C45.1362697,39.3462419 46.3602607,40.5889264 47.8680307,40.5889264 C49.3742414,40.5889264 50.5982324,39.3462419 50.5982324,37.8399577 L50.5982324,31.0287286 L58.0357324,31.0287286 C60.1188561,31.0287286 61.7731931,29.0266258 61.7731931,25.6578839 C61.7731931,22.7802534 60.1188561,20.348232 58.0357324,20.348232" id="Fill-76"></path>
                        <path d="M21.5420873,17.0805366 L52.0982062,17.0805366 C52.3305307,17.0805366 52.5488221,17.0664152 52.7530805,17.0303271 C54.1439085,16.821644 55.2072995,15.7201736 55.5456512,14.3755011 L55.9900301,12.6134624 L56.725984,9.37024412 C56.7618462,9.22118474 56.7789976,9.05957299 56.7789976,8.87913269 C56.7789976,7.86552892 56.0664321,6.96489647 55.08568,6.73738479 C54.9469091,6.70600387 54.7956643,6.69031341 54.6459788,6.69031341 C53.6262461,6.69031341 52.7000668,7.42462697 52.4880123,8.3958665 L52.0436334,10.3791408 C51.7832429,11.5418039 50.7572733,12.3686912 49.5707036,12.3686912 L45.0988483,12.3686912 C44.4330595,12.3686912 43.6628027,12.1819747 42.8083477,11.8116798 C42.4076271,11.6390848 42.0053472,11.4868873 41.6030673,11.3252755 L36.1177162,9.43928215 C31.9514688,8.26406663 27.7930176,7.66155293 23.6969353,7.66155293 L21.3253551,7.66155293 C20.0842125,7.66155293 18.9038797,8.15109531 18.0057665,9.04074444 C16.9922707,10.0778839 16.5026743,11.5041468 16.6835443,12.9696358 C16.9797969,15.3624311 19.1455595,17.0805366 21.5420873,17.0805366 Z" id="Fill-78"></path>
                    </g>
                </g>
            </g>
        </g>
    </g>
</svg>