<?xml version="1.0" encoding="UTF-8"?>
<svg width="53px" height="56px" viewBox="0 0 53 56" version="1.1" xmlns="http://www.w3.org/2000/svg" xmlns:xlink="http://www.w3.org/1999/xlink">
    <!-- Generator: Sketch 42 (36781) - http://www.bohemiancoding.com/sketch -->
    <title>cr-seguro-viajero-inconvenientes-viajes</title>
    <desc>Created with Sketch.</desc>
    <defs></defs>
    <g id="Page-1" stroke="none" stroke-width="1" fill="none" fill-rule="evenodd">
        <g id="home-seguroviajero-junio2017-copy" transform="translate(-122.000000, -627.000000)" fill="#444756">
            <g id="Group-6" transform="translate(122.000000, 627.000000)">
                <g id="cr-seguro-viajero-inconvenientes-viajes">
                    <path d="M40.926706,47.7024154 L34.992826,55.1633385 C34.611226,55.6447231 34.040946,55.7061077 33.566066,55.3162615 C33.093306,54.9285692 33.030766,54.3481077 33.414486,53.8667231 L39.346246,46.4058 C39.729966,45.9254923 40.300246,45.8619538 40.774066,46.2507231 C41.248946,46.6394923 41.309366,47.2221077 40.926706,47.7024154" id="Fill-11"></path>
                    <path d="M7.76132,20.4816769 L1.8285,27.9426 C1.4469,28.4239846 0.87556,28.4864462 0.40174,28.0976769 C-0.07208,27.7078308 -0.1325,27.1295231 0.25016,26.6459846 L6.18192,19.1850615 C6.56564,18.7047538 7.13592,18.6433692 7.60974,19.0310615 C8.08356,19.4198308 8.14504,20.0013692 7.76132,20.4816769" id="Fill-4"></path>
                    <path d="M44.5518,1.62292308 L36.76928,11.4110769 L12.1423,9.22815385 C11.77872,9.19476923 11.42786,9.30461538 11.23706,9.54692308 L8.36658,13.1578462 C8.17472,13.3969231 8.1408,13.7684615 8.17366,14.0581538 C8.20334,14.3467692 8.45562,14.6892308 8.7556,14.8012308 L27.90132,22.5604615 L20.43786,31.9458462 L13.85632,32.5101538 C13.57012,32.5424615 13.30194,32.718 13.17368,32.8763077 L8.26164,39.0546154 C8.00512,39.3776923 7.98816,39.8903077 8.16094,40.166 C8.34962,40.5870769 8.72804,40.7647692 9.15734,40.7184615 L20.0075,39.5478462 L21.15972,50.5690769 C21.2053,51.0041538 21.45652,51.3444615 21.8996,51.4435385 C22.34374,51.5415385 22.69142,51.4295385 22.94794,51.1096923 L27.79638,45.0121538 C27.98718,44.7709231 28.03488,44.5458462 28.00626,44.2572308 L27.16568,37.5996923 L34.62914,28.2143077 L46.11954,45.6012308 C46.29338,45.8758462 46.59336,45.9889231 46.958,46.0233846 C47.32158,46.0567692 47.59294,45.8823077 47.78374,45.6410769 L50.65634,42.0301538 C50.84608,41.79 50.88,41.4195385 50.8482,41.1309231 L43.57554,17.1284615 L51.41954,7.26061538 C52.9523,5.33615385 52.66292,2.57923077 50.76764,1.02307692 C48.87342,-0.529846154 46.08032,-0.302615385 44.5518,1.62292308" id="Fill-1"></path>
                    <path d="M9.158824,26.9316923 L3.226004,34.3926154 C2.842284,34.8750769 2.273064,34.9343077 1.798184,34.5466154 C1.324364,34.1589231 1.263944,33.5784615 1.646604,33.096 L7.579424,25.6361538 C7.961024,25.1558462 8.532364,25.0923077 9.006184,25.4789231 C9.480004,25.8698462 9.541484,26.4503077 9.158824,26.9316923" id="Fill-7"></path>
                    <path d="M34.426998,47.6697846 L28.494178,55.1307077 C28.111518,55.6142462 27.541238,55.6734769 27.067418,55.2857846 C26.591478,54.8959385 26.532118,54.3176308 26.914778,53.8340923 L32.847598,46.3742462 C33.229198,45.8928615 33.801598,45.8314769 34.274358,46.2180923 C34.748178,46.6090154 34.807538,47.1894769 34.426998,47.6697846" id="Fill-9"></path>
                </g>
            </g>
        </g>
    </g>
</svg>